<svg width="2500" height="2500" viewBox="0 0 2500 2500" fill="none" xmlns="http://www.w3.org/2000/svg">
<path d="M2256 2325H1920.36L1380 1647.25L1544.64 1443L2256 2325Z" fill="url(#paint0_linear_0_1)"/>
<path d="M1001.75 772H658.895L1154.96 1327.06L331 2325H672.417L1493 1307.66L1001.75 772Z" fill="url(#paint1_linear_0_1)"/>
<path d="M1799.12 215H157.845L412.269 475.57L1805.26 477.256C1848.37 489.905 2059.68 514.36 2071.52 790.108C2078.95 982.373 1919.09 1074.85 1838.22 1097.06L1734.26 1108.86L1592.25 1307.87L1637.9 1361H1829.77L1885.56 1353.41C2120.54 1301.13 2342 1109.71 2342 790.108C2324.42 352.284 1972.75 224.276 1799.12 215Z" fill="url(#paint2_linear_0_1)"/>
<defs>
<linearGradient id="paint0_linear_0_1" x1="1492.07" y1="1443" x2="2352.06" y2="1759.52" gradientUnits="userSpaceOnUse">
<stop stop-color="#CCCDCC"/>
<stop offset="0.2" stop-color="#C8C9CB"/>
<stop offset="0.45" stop-color="#E1E3E2"/>
<stop offset="0.780207" stop-color="#C3C5C4"/>
<stop offset="1" stop-color="#A5A5A6"/>
</linearGradient>
<linearGradient id="paint1_linear_0_1" x1="911.463" y1="772" x2="908.825" y2="2324.99" gradientUnits="userSpaceOnUse">
<stop stop-color="#9025F1"/>
<stop offset="0.25" stop-color="#982EF5"/>
<stop offset="0.5" stop-color="#750BF0"/>
<stop offset="0.75" stop-color="#45069F"/>
<stop offset="1" stop-color="#2B006C"/>
</linearGradient>
<linearGradient id="paint2_linear_0_1" x1="436.528" y1="215" x2="2061.15" y2="1362.88" gradientUnits="userSpaceOnUse">
<stop stop-color="#FDFDFD"/>
<stop offset="0.2" stop-color="#E4E4E3"/>
<stop offset="0.45" stop-color="#CBCBCB"/>
<stop offset="0.780207" stop-color="#FDFDFD"/>
<stop offset="1" stop-color="#A5A6A8"/>
</linearGradient>
</defs>
</svg>
