<svg width="5986" height="3384" viewBox="0 0 5986 3384" fill="none" xmlns="http://www.w3.org/2000/svg">
<path d="M3914 3181H2431V3161H3914V3181Z" fill="url(#paint0_linear_0_1)"/>
<path d="M3983 2313H3647.36L3107 1635.25L3271.64 1431L3983 2313Z" fill="url(#paint1_linear_0_1)"/>
<path d="M2728.75 760H2385.9L2881.96 1315.06L2058 2313H2399.42L3220 1295.66L2728.75 760Z" fill="url(#paint2_linear_0_1)"/>
<path d="M3526.12 203H1884.85L2139.27 463.57L3532.26 465.256C3575.37 477.905 3786.68 502.36 3798.52 778.108C3805.95 970.373 3646.09 1062.85 3565.22 1085.06L3461.26 1096.86L3319.25 1295.87L3364.9 1349H3556.77L3612.56 1341.41C3847.54 1289.13 4069 1097.71 4069 778.108C4051.42 340.284 3699.75 212.276 3526.12 203Z" fill="url(#paint3_linear_0_1)"/>
<path d="M3214.55 2469.12L3476.43 3004.6H3384.6L3143.97 2510.43H3196.69L2954.36 3004.6H2869.34L3130.37 2469.12H3214.55Z" fill="url(#paint4_linear_0_1)"/>
<path d="M2018.59 3004.6V2469.12H2250.71C2327.8 2469.12 2388.45 2485.69 2432.67 2518.84C2476.88 2551.48 2498.99 2597.13 2498.99 2655.77C2498.99 2694.53 2489.07 2727.94 2469.23 2755.98C2449.39 2783.52 2421.05 2804.69 2384.2 2819.48C2347.36 2834.27 2302.86 2841.66 2250.71 2841.66H2065.35L2103.61 2806.47V3004.6H2018.59ZM2416.51 3004.6L2265.17 2810.3H2356.14L2509.19 3004.6H2416.51ZM2103.61 2814.12L2065.35 2776.64H2248.16C2302.58 2776.64 2343.67 2766.18 2371.45 2745.28C2399.79 2723.86 2413.96 2694.02 2413.96 2655.77C2413.96 2617.52 2399.79 2587.95 2371.45 2567.04C2343.67 2546.13 2302.58 2535.67 2248.16 2535.67H2065.35L2103.61 2497.42V2814.12Z" fill="url(#paint5_linear_0_1)"/>
<path d="M1301.12 3004.6V2799.59L1320.67 2847.02L1064.74 2469.12H1155.72L1370.84 2788.11H1321.52L1537.49 2469.12H1621.67L1366.59 2847.02L1385.29 2799.59V3004.6H1301.12Z" fill="url(#paint6_linear_0_1)"/>
<path d="M229 3004.6V2469.12H461.124C513.274 2469.12 557.771 2476.51 594.616 2491.3C631.461 2506.09 659.804 2527.51 679.643 2555.56C699.483 2583.61 709.403 2617.01 709.403 2655.77C709.403 2694.53 699.483 2727.94 679.643 2755.98C659.804 2783.52 631.461 2804.94 594.616 2820.24C557.771 2835.03 513.274 2842.43 461.124 2842.43H275.765L314.027 2806.47V3004.6H229ZM314.027 2814.12L275.765 2775.87H458.573C512.99 2775.87 554.087 2765.42 581.862 2744.51C610.205 2723.6 624.376 2694.02 624.376 2655.77C624.376 2617.52 610.205 2587.95 581.862 2567.04C554.087 2546.13 512.99 2535.67 458.573 2535.67H275.765L314.027 2497.42V2814.12Z" fill="url(#paint7_linear_0_1)"/>
<path d="M5525.73 3005C5480.41 3005 5437.07 2999.01 5395.72 2987.03C5354.36 2974.56 5321.79 2958.59 5298 2939.12L5329.44 2880.73C5352.1 2898.2 5380.99 2912.67 5416.11 2924.15C5451.23 2935.63 5487.77 2941.37 5525.73 2941.37C5560.28 2941.37 5588.32 2937.88 5609.85 2930.89C5631.37 2923.9 5647.24 2914.42 5657.43 2902.44C5667.63 2889.96 5672.73 2875.99 5672.73 2860.52C5672.73 2842.55 5665.93 2828.08 5652.33 2817.1C5639.3 2806.12 5622.03 2797.39 5600.5 2790.9C5579.54 2783.91 5556.32 2777.92 5530.82 2772.93C5505.33 2767.94 5479.56 2762.2 5453.5 2755.72C5428.01 2748.73 5404.5 2739.99 5382.97 2729.51C5362.01 2719.03 5345.02 2705.06 5331.99 2687.59C5318.96 2669.63 5312.45 2646.67 5312.45 2618.72C5312.45 2591.77 5320.38 2567.07 5336.24 2544.61C5352.67 2521.65 5377.59 2503.44 5411.01 2489.96C5445 2475.99 5488.05 2469 5540.17 2469C5574.73 2469 5609 2472.99 5642.99 2480.98C5676.98 2488.96 5706.43 2500.44 5731.36 2515.41L5703.32 2575.3C5677.83 2560.33 5650.92 2549.6 5622.59 2543.11C5594.27 2536.12 5566.8 2532.63 5540.17 2532.63C5506.75 2532.63 5479.27 2536.37 5457.75 2543.86C5436.22 2551.35 5420.36 2561.33 5410.16 2573.8C5400.53 2586.28 5395.72 2600.26 5395.72 2615.73C5395.72 2634.19 5402.23 2648.91 5415.26 2659.89C5428.86 2670.87 5446.13 2679.61 5467.09 2686.09C5488.62 2692.58 5512.13 2698.57 5537.62 2704.06C5563.11 2709.05 5588.6 2714.79 5614.1 2721.28C5640.15 2727.77 5663.66 2736.25 5684.62 2746.73C5706.15 2757.21 5723.43 2771.19 5736.46 2788.65C5749.49 2806.12 5756 2828.58 5756 2856.03C5756 2882.48 5747.79 2907.18 5731.36 2930.14C5714.93 2952.6 5689.44 2970.81 5654.88 2984.79C5620.89 2998.26 5577.84 3005 5525.73 3005Z" fill="url(#paint8_linear_0_1)"/>
<path d="M4765.8 3004.6V2469.12H4850.83V3004.6H4765.8Z" fill="url(#paint9_linear_0_1)"/>
<path d="M3920.53 2469.12H3823.55L4031.55 2728.46L3810 3005.12H3908.06L4134.79 2728L3920.53 2469.12Z" fill="url(#paint10_linear_0_1)"/>
<path d="M4360 3005.12L4172.24 2773.58L4122.64 2831.92L4262.32 3005.12H4360Z" fill="url(#paint11_linear_0_1)"/>
<path d="M4252.25 2469.12L4126 2625.5L4172.64 2681.12L4345 2469.12H4252.25Z" fill="url(#paint12_linear_0_1)"/>
<defs>
<linearGradient id="paint0_linear_0_1" x1="2431" y1="3179.62" x2="2431.95" y2="3209.49" gradientUnits="userSpaceOnUse">
<stop offset="1" stop-color="#8422F7"/>
</linearGradient>
<linearGradient id="paint1_linear_0_1" x1="3219.07" y1="1431" x2="4079.06" y2="1747.52" gradientUnits="userSpaceOnUse">
<stop stop-color="#CCCDCC"/>
<stop offset="0.2" stop-color="#C8C9CB"/>
<stop offset="0.45" stop-color="#E1E3E2"/>
<stop offset="0.780207" stop-color="#C3C5C4"/>
<stop offset="1" stop-color="#A5A5A6"/>
</linearGradient>
<linearGradient id="paint2_linear_0_1" x1="2638.46" y1="760" x2="2635.83" y2="2312.99" gradientUnits="userSpaceOnUse">
<stop stop-color="#9025F1"/>
<stop offset="0.25" stop-color="#982EF5"/>
<stop offset="0.5" stop-color="#750BF0"/>
<stop offset="0.75" stop-color="#45069F"/>
<stop offset="1" stop-color="#2B006C"/>
</linearGradient>
<linearGradient id="paint3_linear_0_1" x1="2163.53" y1="203" x2="3788.15" y2="1350.88" gradientUnits="userSpaceOnUse">
<stop stop-color="#FDFDFD"/>
<stop offset="0.2" stop-color="#E4E4E3"/>
<stop offset="0.45" stop-color="#CBCBCB"/>
<stop offset="0.780207" stop-color="#FDFDFD"/>
<stop offset="1" stop-color="#A5A6A8"/>
</linearGradient>
<linearGradient id="paint4_linear_0_1" x1="2947" y1="2469.12" x2="3522.21" y2="2710.78" gradientUnits="userSpaceOnUse">
<stop stop-color="#CCCDCC"/>
<stop offset="0.2" stop-color="#C8C9CB"/>
<stop offset="0.45" stop-color="#E1E3E2"/>
<stop offset="0.780207" stop-color="#C3C5C4"/>
<stop offset="1" stop-color="#A5A5A6"/>
</linearGradient>
<linearGradient id="paint5_linear_0_1" x1="2081.35" y1="2469.12" x2="2571.71" y2="2635.61" gradientUnits="userSpaceOnUse">
<stop stop-color="#CCCDCC"/>
<stop offset="0.2" stop-color="#C8C9CB"/>
<stop offset="0.45" stop-color="#E1E3E2"/>
<stop offset="0.780207" stop-color="#C3C5C4"/>
<stop offset="1" stop-color="#A5A5A6"/>
</linearGradient>
<linearGradient id="paint6_linear_0_1" x1="1135.99" y1="2469.12" x2="1676.51" y2="2677.45" gradientUnits="userSpaceOnUse">
<stop stop-color="#CCCDCC"/>
<stop offset="0.2" stop-color="#C8C9CB"/>
<stop offset="0.45" stop-color="#E1E3E2"/>
<stop offset="0.780207" stop-color="#C3C5C4"/>
<stop offset="1" stop-color="#A5A5A6"/>
</linearGradient>
<linearGradient id="paint7_linear_0_1" x1="290.458" y1="2469.12" x2="772.671" y2="2629.44" gradientUnits="userSpaceOnUse">
<stop stop-color="#CCCDCC"/>
<stop offset="0.2" stop-color="#C8C9CB"/>
<stop offset="0.45" stop-color="#E1E3E2"/>
<stop offset="0.780207" stop-color="#C3C5C4"/>
<stop offset="1" stop-color="#A5A5A6"/>
</linearGradient>
<linearGradient id="paint8_linear_0_1" x1="5356.59" y1="2469" x2="5820.61" y2="2615.93" gradientUnits="userSpaceOnUse">
<stop stop-color="#CCCDCC"/>
<stop offset="0.2" stop-color="#C8C9CB"/>
<stop offset="0.45" stop-color="#E1E3E2"/>
<stop offset="0.780207" stop-color="#C3C5C4"/>
<stop offset="1" stop-color="#A5A5A6"/>
</linearGradient>
<linearGradient id="paint9_linear_0_1" x1="4851" y1="2469" x2="4940.98" y2="2500.19" gradientUnits="userSpaceOnUse">
<stop stop-color="#FDFDFD"/>
<stop offset="0.120192" stop-color="#E1E3E2"/>
<stop offset="0.716346" stop-color="#C8C9CB"/>
<stop offset="0.78" stop-color="#C3C5C4"/>
<stop offset="1" stop-color="#BDBDBE"/>
</linearGradient>
<linearGradient id="paint10_linear_0_1" x1="3880.36" y1="2469.12" x2="4416" y2="2672.8" gradientUnits="userSpaceOnUse">
<stop stop-color="#CCCDCC"/>
<stop offset="0.2" stop-color="#C8C9CB"/>
<stop offset="0.45" stop-color="#E1E3E2"/>
<stop offset="0.780207" stop-color="#C3C5C4"/>
<stop offset="1" stop-color="#A5A5A6"/>
</linearGradient>
<linearGradient id="paint11_linear_0_1" x1="3880.36" y1="2469.12" x2="4416" y2="2672.8" gradientUnits="userSpaceOnUse">
<stop stop-color="#CCCDCC"/>
<stop offset="0.2" stop-color="#C8C9CB"/>
<stop offset="0.45" stop-color="#E1E3E2"/>
<stop offset="0.780207" stop-color="#C3C5C4"/>
<stop offset="1" stop-color="#A5A5A6"/>
</linearGradient>
<linearGradient id="paint12_linear_0_1" x1="4126" y1="2666.52" x2="4242.51" y2="2717.58" gradientUnits="userSpaceOnUse">
<stop offset="1" stop-color="#8422F7"/>
</linearGradient>
</defs>
</svg>
