<svg width="5679" height="815" viewBox="0 0 5679 815" fill="none" xmlns="http://www.w3.org/2000/svg">
<path d="M3061.55 140.12L3323.43 675.601H3231.6L2990.97 181.429H3043.69L2801.36 675.601H2716.34L2977.37 140.12H3061.55Z" fill="url(#paint0_linear_125_4)"/>
<path d="M1865.59 675.601V140.12H2097.71C2174.8 140.12 2235.45 156.695 2279.67 189.843C2323.88 222.482 2345.99 268.125 2345.99 326.773C2345.99 365.532 2336.07 398.936 2316.23 426.985C2296.39 454.524 2268.05 475.688 2231.2 490.477C2194.36 505.267 2149.86 512.662 2097.71 512.662H1912.35L1950.61 477.473V675.601H1865.59ZM2263.51 675.601L2112.17 481.298H2203.14L2356.19 675.601H2263.51ZM1950.61 485.123L1912.35 447.639H2095.16C2149.58 447.639 2190.67 437.184 2218.45 416.275C2246.79 394.856 2260.96 365.022 2260.96 326.773C2260.96 288.525 2246.79 258.946 2218.45 238.037C2190.67 217.127 2149.58 206.673 2095.16 206.673H1912.35L1950.61 168.424V485.123Z" fill="url(#paint1_linear_125_4)"/>
<path d="M1148.12 675.601V470.588L1167.67 518.016L911.743 140.12H1002.72L1217.84 459.114H1168.52L1384.49 140.12H1468.67L1213.59 518.016L1232.29 470.588V675.601H1148.12Z" fill="url(#paint2_linear_125_4)"/>
<path d="M76 675.6V140.12H308.124C360.274 140.12 404.771 147.514 441.616 162.304C478.461 177.093 506.804 198.513 526.643 226.562C546.483 254.61 556.403 288.014 556.403 326.773C556.403 365.531 546.483 398.935 526.643 426.984C506.804 454.523 478.461 475.942 441.616 491.242C404.771 506.031 360.274 513.426 308.124 513.426H122.765L161.027 477.472V675.6H76ZM161.027 485.122L122.765 446.873H305.573C359.99 446.873 401.087 436.419 428.862 415.51C457.205 394.6 471.376 365.021 471.376 326.773C471.376 288.524 457.205 258.945 428.862 238.036C401.087 217.127 359.99 206.672 305.573 206.672H122.765L161.027 168.424V485.122Z" fill="url(#paint3_linear_125_4)"/>
<path d="M5372.73 676C5327.41 676 5284.07 670.011 5242.72 658.034C5201.36 645.557 5168.79 629.587 5145 610.123L5176.44 551.732C5199.1 569.199 5227.99 583.672 5263.11 595.151C5298.23 606.629 5334.77 612.369 5372.73 612.369C5407.28 612.369 5435.32 608.875 5456.85 601.888C5478.37 594.901 5494.24 585.419 5504.43 573.441C5514.63 560.965 5519.73 546.991 5519.73 531.52C5519.73 513.553 5512.93 499.08 5499.33 488.101C5486.3 477.121 5469.03 468.387 5447.5 461.899C5426.54 454.913 5403.32 448.924 5377.82 443.933C5352.33 438.942 5326.56 433.203 5300.5 426.715C5275.01 419.728 5251.5 410.994 5229.97 400.514C5209.01 390.034 5192.02 376.06 5178.99 358.592C5165.96 340.626 5159.45 317.669 5159.45 289.721C5159.45 262.771 5167.38 238.067 5183.24 215.609C5199.67 192.652 5224.59 174.436 5258.01 160.961C5292 146.987 5335.05 140 5387.17 140C5421.73 140 5456 143.993 5489.99 151.978C5523.98 159.963 5553.43 171.441 5578.36 186.413L5550.32 246.302C5524.83 231.33 5497.92 220.6 5469.59 214.112C5441.27 207.125 5413.8 203.631 5387.17 203.631C5353.75 203.631 5326.27 207.374 5304.75 214.86C5283.22 222.346 5267.36 232.328 5257.16 244.804C5247.53 257.281 5242.72 271.255 5242.72 286.726C5242.72 305.192 5249.23 319.914 5262.26 330.894C5275.86 341.873 5293.13 350.607 5314.09 357.095C5335.62 363.583 5359.13 369.572 5384.62 375.061C5410.11 380.052 5435.6 385.791 5461.1 392.279C5487.15 398.767 5510.66 407.251 5531.62 417.732C5553.15 428.212 5570.43 442.186 5583.46 459.654C5596.49 477.121 5603 499.579 5603 527.028C5603 553.479 5594.79 578.182 5578.36 601.14C5561.93 623.598 5536.44 641.814 5501.88 655.788C5467.89 669.263 5424.84 676 5372.73 676Z" fill="url(#paint4_linear_125_4)"/>
<path d="M4612.8 675.601V140.12H4697.83V675.601H4612.8Z" fill="url(#paint5_linear_125_4)"/>
<path d="M3767.53 140.12H3670.55L3878.55 399.46L3657 676.12H3755.06L3981.79 399.004L3767.53 140.12Z" fill="url(#paint6_linear_125_4)"/>
<path d="M4207 676.12L4019.24 444.583L3969.64 502.923L4109.32 676.12H4207Z" fill="url(#paint7_linear_125_4)"/>
<path d="M4099.25 140.12L3973 296.499L4019.64 352.12L4192 140.12H4099.25Z" fill="url(#paint8_linear_125_4)"/>
<defs>
<linearGradient id="paint0_linear_125_4" x1="2794" y1="140.12" x2="3369.21" y2="381.783" gradientUnits="userSpaceOnUse">
<stop stop-color="#CCCDCC"/>
<stop offset="0.2" stop-color="#C8C9CB"/>
<stop offset="0.45" stop-color="#E1E3E2"/>
<stop offset="0.780207" stop-color="#C3C5C4"/>
<stop offset="1" stop-color="#A5A5A6"/>
</linearGradient>
<linearGradient id="paint1_linear_125_4" x1="1928.35" y1="140.12" x2="2418.71" y2="306.607" gradientUnits="userSpaceOnUse">
<stop stop-color="#CCCDCC"/>
<stop offset="0.2" stop-color="#C8C9CB"/>
<stop offset="0.45" stop-color="#E1E3E2"/>
<stop offset="0.780207" stop-color="#C3C5C4"/>
<stop offset="1" stop-color="#A5A5A6"/>
</linearGradient>
<linearGradient id="paint2_linear_125_4" x1="982.991" y1="140.12" x2="1523.51" y2="348.447" gradientUnits="userSpaceOnUse">
<stop stop-color="#CCCDCC"/>
<stop offset="0.2" stop-color="#C8C9CB"/>
<stop offset="0.45" stop-color="#E1E3E2"/>
<stop offset="0.780207" stop-color="#C3C5C4"/>
<stop offset="1" stop-color="#A5A5A6"/>
</linearGradient>
<linearGradient id="paint3_linear_125_4" x1="137.458" y1="140.12" x2="619.671" y2="300.436" gradientUnits="userSpaceOnUse">
<stop stop-color="#CCCDCC"/>
<stop offset="0.2" stop-color="#C8C9CB"/>
<stop offset="0.45" stop-color="#E1E3E2"/>
<stop offset="0.780207" stop-color="#C3C5C4"/>
<stop offset="1" stop-color="#A5A5A6"/>
</linearGradient>
<linearGradient id="paint4_linear_125_4" x1="5203.59" y1="140" x2="5667.61" y2="286.929" gradientUnits="userSpaceOnUse">
<stop stop-color="#CCCDCC"/>
<stop offset="0.2" stop-color="#C8C9CB"/>
<stop offset="0.45" stop-color="#E1E3E2"/>
<stop offset="0.780207" stop-color="#C3C5C4"/>
<stop offset="1" stop-color="#A5A5A6"/>
</linearGradient>
<linearGradient id="paint5_linear_125_4" x1="4698" y1="140.001" x2="4787.98" y2="171.189" gradientUnits="userSpaceOnUse">
<stop stop-color="#FDFDFD"/>
<stop offset="0.120192" stop-color="#E1E3E2"/>
<stop offset="0.716346" stop-color="#C8C9CB"/>
<stop offset="0.78" stop-color="#C3C5C4"/>
<stop offset="1" stop-color="#BDBDBE"/>
</linearGradient>
<linearGradient id="paint6_linear_125_4" x1="3727.36" y1="140.12" x2="4263" y2="343.801" gradientUnits="userSpaceOnUse">
<stop stop-color="#CCCDCC"/>
<stop offset="0.2" stop-color="#C8C9CB"/>
<stop offset="0.45" stop-color="#E1E3E2"/>
<stop offset="0.780207" stop-color="#C3C5C4"/>
<stop offset="1" stop-color="#A5A5A6"/>
</linearGradient>
<linearGradient id="paint7_linear_125_4" x1="3727.36" y1="140.12" x2="4263" y2="343.801" gradientUnits="userSpaceOnUse">
<stop stop-color="#CCCDCC"/>
<stop offset="0.2" stop-color="#C8C9CB"/>
<stop offset="0.45" stop-color="#E1E3E2"/>
<stop offset="0.780207" stop-color="#C3C5C4"/>
<stop offset="1" stop-color="#A5A5A6"/>
</linearGradient>
<linearGradient id="paint8_linear_125_4" x1="3973" y1="337.517" x2="4089.51" y2="388.578" gradientUnits="userSpaceOnUse">
<stop offset="1" stop-color="#8422F7"/>
</linearGradient>
</defs>
</svg>
